<?xml version="1.0" encoding="utf-8"?>
<!-- Generator: Adobe Illustrator 16.2.1, SVG Export Plug-In . SVG Version: 6.00 Build 0)  -->
<!DOCTYPE svg PUBLIC "-//W3C//DTD SVG 1.1//EN" "http://www.w3.org/Graphics/SVG/1.1/DTD/svg11.dtd">
<svg version="1.1" id="Layer_1" xmlns="http://www.w3.org/2000/svg" xmlns:xlink="http://www.w3.org/1999/xlink" x="0px" y="0px"
	 width="32.166px" height="24.334px" viewBox="0 0 32.166 24.334" enable-background="new 0 0 32.166 24.334" xml:space="preserve">
<path fill="#5E5F5F" d="M32.166,3.584c0,0.553-0.446,1-1,1H1c-0.553,0-1-0.447-1-1V1c0-0.553,0.447-1,1-1h30.166
	c0.554,0,1,0.447,1,1V3.584z"/>
<path fill="#5E5F5F" d="M32.166,13.334c0,0.553-0.446,1-1,1H1c-0.553,0-1-0.447-1-1V10.75c0-0.553,0.447-1,1-1h30.166
	c0.554,0,1,0.447,1,1V13.334z"/>
<path fill="#5E5F5F" d="M32.166,23.334c0,0.553-0.446,1-1,1H1c-0.553,0-1-0.447-1-1V20.75c0-0.553,0.447-1,1-1h30.166
	c0.554,0,1,0.447,1,1V23.334z"/>
</svg>
